<?xml version="1.0" encoding="utf-8"?>
<svg xmlns="http://www.w3.org/2000/svg" xmlns:xlink="http://www.w3.org/1999/xlink" version= "1.1" width="720px" height="1424px" viewBox="0 0 720 1424">
<g id="layer1">
<g>
<g style="fill:rgb(0,0,0); fill-opacity:1.0; stroke-linejoin: miter">
<path d="M321.9508,493.33563C321.95343,493.3352,321.9557,493.33508,321.95703,493.3349L321.95966,493.33606C321.95966,493.33508,321.95813,493.33545,321.95508,493.33563 Z M239.89363,492.56058C239.89253,492.54935,239.89235,492.52927,239.8946,492.50333L239.89876,492.50443C239.89998,492.53177,239.89973,492.5502,239.89876,492.56058 Z M323.68,486.45648L323.68,486.45764C323.67487,486.45306,323.66742,486.4472,323.6585,486.43915L323.6621,486.44012C323.67322,486.4472,323.68042,486.45306,323.6842,486.45648 Z M238.24022,578.515C240.07085,578.515,241.82762,578.3978,242.99345,578.1345L242.99321,578.13574C249.2686,576.7197,254.02365,572.459,255.51843,566.7914C256.57526,562.8711,255.94232,557.1527,253.88641,551.5593L253.88574,551.5576C253.65863,550.94604,253.50421,550.50903,253.40417,550.202C261.74286,553.52124,266.81976,554.7007,272.89606,554.7007C272.9621,554.7007,273.05756,554.7003,273.1247,554.69995L273.12415,554.70105C280.3853,554.6693,285.81082,552.34045,290.0568,547.35596L290.05704,547.3557C291.81842,545.2851,294.57892,539.9422,295.3465,537.0562L295.88403,535.1148C295.93774,534.92096,295.87738,534.7133,295.72797,534.57855L293.8714,532.9017L293.87158,532.9028C290.9589,530.1904,288.67648,526.2427,287.68253,522.2378L287.68253,522.2389C287.4869,521.39185,287.3085,519.3192,287.27878,517.68445L287.27878,517.68555L287.27878,514.6398C287.27878,514.4608,287.18893,514.29395,287.03934,514.19556L285.99118,513.50684L285.99142,513.50793C284.2797,512.34326,280.40875,508.47452,279.09448,506.63455C270.30133,494.2406,273.25732,478.61487,284.8887,470.36218C286.54965,469.18372,288.38858,468.15448,290.39792,467.3059C292.78964,466.30194,296.6329,465.21033,298.78995,464.94812L298.80093,464.94678C300.23367,464.742,300.84116,464.6234,301.07297,463.51068L301.07297,463.51178C302.13766,458.81134,303.46072,455.6734,305.90085,452.14545C308.69034,448.15308,313.6157,444.05304,318.23007,441.96625L318.23026,441.96722L318.23422,441.96442C318.83524,441.68976,319.36307,441.46558,319.70212,441.33032C320.2548,442.66327,321.86243,446.892,322.2367,447.99222L322.24103,447.99332C322.02014,448.15536,321.57916,448.42667,321.01398,448.69943L321.00458,448.70413C311.15054,453.7074,305.94205,464.16113,308.87875,473.53137L308.87875,473.53247C310.61783,479.1521,315.6252,483.72113,322.27832,485.88818L322.2854,485.89038C322.78845,486.04657,323.20282,486.2121,323.44598,486.3249L323.45032,486.326C323.19867,487.614,322.10522,492.13397,321.74103,493.31647L321.73676,493.31744C320.45898,493.11493,315.93808,491.41577,313.7769,490.21802L313.7769,490.21918C308.0958,486.99518,303.39413,480.9154,301.60428,474.37213L301.60263,474.3662L301.0637,472.47968C300.99765,472.24884,300.78677,472.09418,300.5529,472.09418C300.52664,472.09418,300.50027,472.09625,300.47366,472.1001L299.2759,472.2799L299.27426,472.2799C296.668,472.6786,294.2545,473.47473,291.5234,474.7793L291.52353,474.78046C289.21835,475.8551,288.1816,476.60925,286.40482,478.35553L286.40152,478.35883C282.64612,482.11426,281.05646,486.1839,281.36566,491.25446L281.36566,491.2563C281.82916,498.45502,286.999,505.6935,294.6,509.9811L295.79642,510.6614L295.4786,512.324L295.4786,512.3251C294.8972,515.23596,294.95486,519.92334,295.57455,522.4037C296.29153,525.30286,298.16217,528.0078,300.39874,529.34985L300.4016,529.35156C302.6175,530.66235,303.8501,530.9826,306.6615,530.9827C310.97058,530.9827,315.18298,529.3363,319.5882,526.0249C321.24414,524.78906,321.7141,524.5421,321.8999,524.5421L321.90405,524.5431C324.3756,526.25964,327.14093,527.8136,328.9968,528.4944L328.9968,528.4955C330.81448,529.1655,331.5894,529.3108,334.27444,529.3108C334.5748,529.3108,334.9102,529.30896,335.26437,529.3059L335.2598,529.307C338.7242,529.3058,339.4927,529.21594,341.35233,528.49097L341.3522,528.49207C345.921,526.74243,349.92917,523.4956,352.77182,519.2163L352.77182,519.2173C361.5184,506.08078,359.6594,488.33337,348.2728,474.8875L348.2714,474.886C347.46347,473.93964,347.0427,473.29938,346.93338,473.02863L346.9374,473.0296C347.19223,472.68774,347.8738,471.8177,348.63016,470.93524L348.63193,470.93317C352.17557,466.75348,355.413,461.1576,357.1423,456.27295L357.1425,456.2724C363.40536,438.52344,356.32108,420.3096,341.01633,414.90945L341.01633,414.91055C340.70102,414.7982,340.38156,414.69205,340.0593,414.592L340.05746,414.59146C338.3929,414.08054,335.69357,413.8328,333.09433,413.8328C330.74167,413.8328,328.38736,414.0356,326.87817,414.46896L326.87347,414.47037C321.55194,416.05154,316.18057,419.14816,311.93112,423.09366L309.85873,425.0046L308.42624,424.5107L308.4219,424.50906C303.64963,422.848,301.2612,422.35648,296.79745,422.20474L296.79886,422.20566C295.66794,422.15976,294.78842,422.1334,294.05167,422.1334C292.30466,422.1334,291.369,422.2828,289.82272,422.66928L289.8215,422.6696C283.25357,424.32693,278.8761,427.9999,275.90613,434.2761L275.90625,434.2772C273.79352,438.71582,273.33905,441.2882,273.33905,448.48932C273.33905,451.4192,273.29156,453.14423,273.21124,453.8932L273.20642,453.89417C270.94586,453.19806,267.0265,452.82,263.49854,452.82C261.08945,452.82007,258.7908,452.99585,257.26566,453.39526C249.55794,455.414,243.6191,460.58923,240.47115,467.95496L240.47029,467.95673C237.87227,474.10077,237.45674,482.6369,239.39656,490.275L239.39687,490.2758C239.60982,491.10788,239.77211,491.80508,239.84938,492.19632L239.8545,492.19742C239.44398,492.35904,238.71461,492.64188,237.90248,492.93906L237.89656,492.94125C227.19888,497.00192,219.1022,504.34238,213.86282,514.7908C203.69992,535.0562,208.0192,564.23004,222.93692,574.13556L222.93692,574.13654C225.49973,575.84393,227.34488,576.7034,230.74031,577.73444L230.7405,577.73566C232.39034,578.2465,235.47191,578.515,238.24022,578.515 Z"/>
</g>
<g style="fill:rgb(0,0,0); fill-opacity:1.0; stroke-linejoin: miter">
<path d="M322.45035,722.6439C324.5731,722.6439,326.70993,722.4402,328.32608,722.0206L328.32742,722.02026C336.3867,719.90576,343.35306,713.57825,347.7462,704.51917L347.7466,704.51855C354.8165,689.8932,353.0405,672.0266,343.07025,656.89L343.06342,656.87976L343.06342,656.88086C342.28198,655.7074,341.65314,654.70105,341.4054,654.2704L341.40955,654.2717C341.6662,653.9133,342.26172,653.15125,342.97742,652.27893L342.97754,652.27856C347.7898,646.4072,350.94394,639.95135,352.42984,632.8858L352.42984,632.8853C353.34335,628.5313,353.34335,621.9288,352.42984,617.5745C350.60892,608.89435,346.20776,601.2261,339.13263,594.39294L339.13263,594.3939L337.12238,592.43274L339.79993,589.729L339.8009,589.728C346.0033,583.4348,350.06442,576.34515,352.21484,568.01636C353.4272,563.40857,353.70007,560.54065,353.51923,555.1686L353.5191,555.16797C353.27686,548.23206,352.02875,543.4833,348.87875,537.3649L348.87778,537.3632C348.01627,535.7049,347.52243,534.7818,346.8987,534.5485L346.8986,534.5484C346.80368,534.5129,346.7084,534.49225,346.61044,534.48505L346.61075,534.4864C346.58463,534.48334,346.55594,534.48224,346.53,534.48224C346.44095,534.48224,346.3566,534.4931,346.27988,534.5087L346.2822,534.5098C345.88077,534.5756,344.39584,535.0103,343.0151,535.4216L343.0151,535.42255C340.23203,536.2431,337.2709,536.6539,334.35477,536.6539C330.79977,536.6539,327.32172,536.044,324.31787,534.8392L324.3147,534.8378L322.48798,534.1191C322.42523,534.0944,322.3592,534.0822,322.29333,534.0822C322.20703,534.0822,322.12103,534.10333,322.04303,534.14484L319.79724,535.34247L319.7921,535.3453C316.99817,536.87445,314.03387,537.9006,311.01733,538.3398L311.01733,538.3409C310.11572,538.4703,308.89648,538.53436,307.68762,538.53436C305.91486,538.53436,304.32495,538.3953,303.79956,538.191L303.79572,538.1894C303.78833,538.1868,303.7735,538.1812,303.76532,538.1784L303.76367,538.1777C303.6765,538.1475,303.57568,538.1252,303.46356,538.1252C303.23206,538.1252,303.03644,538.21967,302.88373,538.35785L302.88373,538.35895C302.53162,538.6766,302.2768,539.3837,301.9641,540.3768L301.9641,540.37775C297.48828,553.9809,286.36618,562.26135,272.59747,562.2612C272.56445,562.2612,272.55737,562.2612,272.52435,562.2612L272.52618,562.26245C270.4969,562.2317,269.47186,562.14514,264.86884,561.51746L264.8692,561.51855L263.3205,561.2793C263.29358,561.27515,263.26666,561.2732,263.23975,561.2732C263.11365,561.2732,262.9906,561.318,262.89362,561.40125C262.77588,561.5022,262.7082,561.64954,262.7082,561.80457L262.7082,563.3019C262.7082,566.14417,261.62445,570.52234,260.19095,573.3917L260.19095,573.3927L259.47226,574.7991C259.39346,574.95337,259.3948,575.1365,259.47598,575.28955C259.55698,575.44275,259.70767,575.54675,259.87967,575.56824L261.3171,575.7479L261.317,575.749C267.4241,576.5753,274.4114,579.6798,278.301,583.27686L278.30392,583.2794L279.65152,584.5073C279.7532,584.6,279.88138,584.6459,280.00925,584.6459C280.147,584.6459,280.28452,584.5929,280.38828,584.4873L282.24496,582.6007L282.24496,582.6017C286.78778,578.0593,292.69077,575.6081,298.76694,575.6081C300.1829,575.6081,301.6071,575.741,303.02817,576.0119L303.0283,576.013C305.49417,576.4816,308.57748,577.60077,310.37173,578.6713L310.3763,578.6739C311.01877,579.04877,311.68936,579.38336,311.93808,579.4611L311.93875,579.4615C311.9567,579.46686,312.0416,579.4952,312.14145,579.4952C312.39725,579.4952,312.57413,579.30316,312.57108,579.30316L312.57065,579.30426C312.819,579.059,313.40994,578.1807,313.97598,577.22894L313.97885,577.22394C316.5353,572.8161,320.77338,568.7878,324.92932,566.6807L324.92944,566.6818L326.45032,565.9202L326.50275,566.0485L326.50262,566.0496C326.66022,566.45734,327.31525,568.1247,327.99722,569.8149L327.99734,569.8161L328.00107,569.82404C328.5009,571.0413,328.91235,572.1097,329.09894,572.618L329.1031,572.6191C328.8316,572.79755,328.33844,573.09296,327.72235,573.43964L327.71594,573.4434C326.73453,574.01324,324.8724,575.51337,323.59335,576.82196L323.59335,576.82294C321.6956,578.7199,320.9717,579.75714,319.8679,582.05664L319.8679,582.0576C318.18777,585.5388,317.5093,588.46216,317.5093,592.07983C317.5093,597.85706,319.4567,602.42285,323.6841,606.65027L325.9772,608.94336L324.01285,611.8104L324.01273,611.81165C323.0662,613.1727,322.22372,614.3258,321.84262,614.808L321.83835,614.80896C320.89462,614.22156,318.009,611.67346,316.74826,610.10376L316.7474,610.1028C312.3035,604.5991,310.18753,598.5786,310.18753,591.3313L310.18753,587.67786C310.18753,587.5078,310.10605,587.34814,309.9686,587.2479L308.98032,586.5292L308.98062,586.5303C307.35532,585.2833,304.29984,583.88135,302.233,583.3878L302.23093,583.3872C300.99014,583.09607,299.76425,582.9503,298.5591,582.9503C294.382,582.9503,290.51294,584.7001,287.1773,588.0835L287.1762,588.0845C285.91754,589.3683,285.09308,590.3301,284.9699,590.9286L284.9699,590.9287C284.94733,591.0382,284.9372,591.17615,284.97668,591.3214L284.9853,591.34973C285.07758,591.62683,285.5567,593.0038,286.0661,594.4126C287.56073,598.66205,287.8465,603.4777,286.8412,607.0944L286.84186,607.0955C286.56482,607.92584,287.0583,608.4097,287.72528,608.8226L287.7351,608.8287C289.32684,609.7664,292.4753,612.90576,293.81943,614.9509L293.82138,614.954C298.2037,621.52734,298.92398,631.011,295.56833,639.22327L295.5668,639.22705L294.84824,641.0238C294.7869,641.1771,294.8002,641.3501,294.8843,641.49194C294.96835,641.6339,295.11362,641.72864,295.27744,641.7488L296.50516,641.89844L296.50528,641.8994C300.93106,642.43665,302.56638,642.7318,304.73044,643.4337L304.73477,643.4348C314.81638,646.6094,321.23404,653.96497,323.02707,664.37L323.02707,664.3705C323.2972,665.93054,323.49844,667.5956,323.49844,668.08276C323.49844,669.3739,323.9844,669.57654,325.6694,670.1974L325.6694,670.1985C330.617,672.06006,335.84622,677.10315,338.21896,682.3163C338.88553,683.792,339.45944,685.547,339.60178,686.2615L339.6058,686.2626C338.40927,686.599,334.40677,687.614,333.02744,687.89514L333.0259,687.8955C332.84335,687.9332,332.73904,687.9507,332.67233,687.95544L332.66818,687.9564C332.6132,687.85254,332.53287,687.6013,332.35892,686.9595L332.3591,686.96045C331.4482,683.42114,328.3209,679.5945,324.90677,677.7942L324.90567,677.79333C322.43533,676.49854,319.71988,675.87134,316.95163,675.87134C311.84818,675.87134,306.57162,678.00183,302.2889,682.0051L302.28903,682.0062L301.1655,683.0371L299.09946,681.3026L299.0977,681.30115L299.0975,681.3021L299.09738,681.3009L299.09738,681.3021C297.74966,680.1627,296.39584,678.92456,296.03073,678.5314L296.02487,678.5254L295.7065,678.193L297.50357,676.4944L297.50357,676.4955C300.00967,674.136,302.24063,672.57983,305.51633,670.9863L305.51926,670.985C308.0245,669.74695,312.7324,668.43445,314.47714,668.43445C314.8652,668.43445,315.34158,668.4258,315.6899,668.18933L315.6899,668.1904C315.8159,668.1039,315.92075,667.99304,315.99997,667.85767L315.99997,667.85864C316.1359,667.6249,316.17416,667.3567,316.17416,667.095L316.17416,667.095C316.17416,666.4662,315.9407,665.4784,315.561,663.9978C314.06198,658.0044,310.71036,653.5781,305.90213,651.2825L305.90103,651.28186C302.43747,649.6382,300.78653,649.2821,296.3336,649.2821C296.147,649.2821,295.92557,649.28296,295.72775,649.2842L295.72983,649.28516L295.72525,649.2842C292.22177,649.31445,290.94897,649.4671,288.49878,650.11017L288.49854,650.11017C277.44284,653.0181,268.01797,660.32416,263.77756,669.2624L263.77634,669.26495C262.21555,672.60065,261.6899,675.01337,261.6899,678.68353C261.6899,682.6359,262.2513,684.90094,264.13867,688.7973L264.14172,688.8034C265.30603,691.132,266.05835,692.16595,267.92474,694.0323L267.92627,694.03375C271.63855,697.71564,275.5929,699.5097,280.72696,699.7869L280.7267,699.78815L280.73373,699.7873C281.28812,699.816,281.78476,699.8328,282.26627,699.8328C284.35727,699.8328,285.95065,699.5087,289.29532,698.508L289.31088,698.50287C289.35995,698.48663,289.38608,698.48456,289.39658,698.48456C289.39536,698.48456,289.39548,698.48444,289.3972,698.48444C289.4116,698.48444,289.54074,698.512,289.8516,699.045L289.85373,699.0484C292.73282,703.89764,300.86172,712.9904,305.44077,716.4189L305.4409,716.41986C308.63242,718.8505,313.30746,721.19183,316.53098,722.0208L316.53214,722.0212C318.17587,722.43976,320.3279,722.644,322.45035,722.6439 Z"/>
</g>
<g style="fill:rgb(0,0,0); fill-opacity:1.0; stroke-linejoin: miter">
<path d="M274.89114,612.4871C274.88974,612.48663,274.88834,612.48615,274.887,612.4858L274.8867,612.48676C274.88724,612.4849,274.8878,612.48395,274.88834,612.48334L274.88834,612.48444C274.89084,612.48456,274.89334,612.4858,274.89597,612.4871 Z M254.97446,670.2314C255.29019,670.2314,255.48679,669.9134,255.48679,669.89557L255.4783,669.89655C255.67227,669.5384,256.35812,668.10443,257.13278,666.4517L257.13333,666.45087C259.3851,661.62103,261.80655,658.1092,265.264,654.622L265.26413,654.623C269.577,650.27985,275.97482,646.27936,282.13193,644.11835L282.1426,644.11456C283.8755,643.4838,284.60382,642.982,286.0008,641.461L286.00092,641.462C289.2489,637.99396,290.97034,632.96735,290.6314,628.0683L290.6314,628.06744C290.3244,623.7087,288.9359,620.2685,286.2126,617.2668L286.2118,617.2659C283.66046,614.46576,279.50748,612.5704,275.817,612.5704C275.69852,612.5704,275.58823,612.5673,275.48807,612.5623L275.49277,612.5633C275.64218,612.36774,275.82834,612.1368,276.03964,611.892L276.0403,611.8912C277.3829,610.33026,279.093,607.0871,279.74057,604.89777L279.74057,604.89874C280.80405,601.3305,280.1179,596.8587,278.09067,593.709C275.82584,590.14307,271.28622,586.81775,266.41544,585.0521L266.41544,585.0532C262.7534,583.7057,259.57242,583.0359,256.13156,583.0359C253.22891,583.0359,250.16295,583.5122,246.48979,584.4374L246.4887,584.43774C242.81438,585.3716,239.632,585.8285,236.72423,585.8285C235.37651,585.8285,234.08888,585.73065,232.83632,585.5357L232.83272,585.5351C229.05692,584.9748,226.92038,584.30316,223.0369,582.4947L223.0369,582.49567L220.19528,581.1486C220.12228,581.1141,220.04477,581.0975,219.96793,581.0975C219.81723,581.0975,219.66953,581.16156,219.56601,581.2808L218.78732,582.17914L218.78262,582.18475C217.43948,583.7778,215.52567,587.46576,214.70328,589.872L214.70132,589.8775C211.4578,599.73016,214.285,610.5627,222.22067,618.772L222.2208,618.772C227.57169,624.3053,234.01051,627.4579,240.95464,627.91656L240.95854,627.91693C241.71294,627.96124,242.3781,628.0192,242.85338,628.07074L242.8585,628.07184C242.674,628.316,242.44371,628.61664,242.19011,628.94293L242.19011,628.9439C239.16924,632.7569,237.1007,637.3564,236.03752,642.48944C235.27397,646.1236,235.36082,651.9593,236.19469,655.01654L236.19511,655.0181C238.43883,663.1326,244.35991,668.3621,253.08255,669.8935L253.08267,669.8945C254.05545,670.0704,254.871,670.2211,254.87766,670.22235L254.97446,670.2314 Z"/>
</g>
<g style="fill:rgb(0,0,0); fill-opacity:1.0; stroke-linejoin: miter">
<path d="M449.60703,698.58575C449.60483,698.58563,449.6094,698.5844,449.62314,698.58307L449.6235,698.58307C449.62424,698.58307,449.62686,698.5827,449.63242,698.5826C449.62198,698.5848,449.61423,698.58575,449.61008,698.58575 Z M399.11945,686.169C399.11487,686.16766,399.11084,686.1661,399.10706,686.16473L399.10706,686.1657C399.02692,686.1353,399.0025,686.11993,399.01202,686.12006C399.0218,686.12006,399.0664,686.1357,399.12305,686.169 Z M443.36423,678.2042C443.36423,678.2042,443.36423,678.2042,443.36423,678.2042L443.36423,678.2042 Z M415.3626,722.62256C420.61502,722.62256,426.30167,720.8104,431.52505,717.4304C436.41397,714.2719,442.29648,708.4733,446.9034,702.361L446.90573,702.3577L446.908,702.3547L446.90854,702.3542C448.22183,700.57733,449.37894,699.0539,449.7488,698.5883C450.06345,698.61725,450.71085,698.7553,451.43985,698.9843L451.43985,698.98566C453.1846,699.53436,455.5947,699.8221,457.82236,699.8221C459.2567,699.8221,460.64423,699.70294,461.75226,699.4445L461.75543,699.44366C465.4837,698.55,468.20392,696.96906,471.14087,694.03217C474.01526,691.1578,475.49854,688.7479,476.72235,684.8308L476.72333,684.82825C477.31403,682.9004,477.4353,681.7932,477.4353,678.6832C477.4353,673.2334,476.3474,669.95544,472.94,664.99634L472.93988,664.9973C471.19208,662.4514,467.04254,658.3661,464.1859,656.3301L464.18463,656.3292C457.8537,651.84344,449.81613,649.15704,442.95743,649.15704C442.4877,649.15704,442.02658,649.1695,441.5682,649.1949L441.56796,649.1949C432.82425,649.6857,426.85056,654.16425,424.17386,662.2254L424.17288,662.22784C423.69595,663.6883,423.2056,665.54205,423.10446,666.3555L423.10458,666.3565L422.8951,667.733C422.8732,667.8774,422.91147,668.02423,423.00107,668.13947C423.09073,668.2546,423.22372,668.32794,423.369,668.3421L425.52505,668.5517L425.52908,668.5522C427.78696,668.7547,431.88406,669.98956,434.3481,671.2508L434.35074,671.25214C437.29575,672.73944,442.30704,676.5488,443.21512,677.98L443.22165,677.99L443.22177,677.9901C443.31094,678.1238,443.34415,678.18726,443.3566,678.2174L443.35965,678.2184C443.31833,678.3218,443.11508,678.552,442.31772,679.27856L442.30728,679.28845C441.53958,680.0265,440.20078,681.2168,439.31082,681.95825L439.30655,681.96216L438.04398,683.0375L436.56326,681.7024C432.35117,677.8803,427.13638,675.8686,422.15836,675.8686C418.92368,675.8686,415.7861,676.71844,413.09753,678.4781L413.09393,678.48065L413.09283,678.4814L413.08643,678.48566C412.12842,679.14435,410.91846,680.0699,410.42566,680.59576L410.42413,680.5971C409.1687,681.94684,407.45416,684.95123,406.8631,686.8172C406.62738,687.5579,406.50116,687.82025,406.43304,687.9078L406.4297,687.90875C406.41748,687.90594,406.40222,687.9029,406.38324,687.8984L406.37103,687.89557C404.48987,687.4997,400.7575,686.6077,399.50452,686.2773L399.50812,686.2785C399.77783,685.29767,400.6505,682.91864,401.22693,681.7659C403.7799,676.72003,407.67505,672.91547,412.71216,670.6021L412.71216,670.6031L415.25745,669.43414C415.4303,669.3547,415.54752,669.18915,415.56497,668.9998L415.74478,667.0534C416.0397,664.1103,417.25345,659.50104,418.36185,657.13837L418.36185,657.13934C419.83023,654.0556,421.40842,651.8925,423.90695,649.5114C428.36215,645.29144,433.81863,642.9062,440.87875,642.1087L440.88126,642.1082C442.2415,641.9483,443.50137,641.7786,443.80228,641.689L443.8027,641.69C443.81393,641.6867,443.959,641.64716,444.06863,641.53815L444.06985,641.5391C444.29318,641.3212,444.2415,641.0026,444.23953,641.0026L444.2394,641.0037C444.20468,640.6745,443.95694,640.03076,443.7014,639.4498L443.7007,639.44836C442.09494,635.82825,441.23642,629.9629,441.6774,625.5825L441.67752,625.5814C442.32315,619.0078,445.4302,613.3113,450.23868,609.7561L450.23868,609.7571L452.24286,608.2903C452.40985,608.1682,452.49084,607.9601,452.4502,607.7571L452.21063,606.5593L452.21075,606.5603C452.10107,605.94055,451.98148,603.72253,451.98148,601.57263C451.98148,597.5615,452.53955,594.98303,453.90076,592.28955L453.90088,592.29065L454.4928,591.1946C454.60406,590.9889,454.56775,590.73474,454.40332,590.56824L451.91794,588.05273L451.91562,588.05054C448.42026,584.55505,444.87668,582.9238,440.51974,582.9238C437.34073,582.9238,433.494,584.22473,430.4562,586.31116L430.45187,586.31433L429.0444,587.3026C428.8879,587.4126,428.80246,587.59814,428.82077,587.78845L429.02994,589.97205C429.55643,595.7626,427.5632,602.82654,423.9125,608.1566C422.24686,610.5515,418.41983,614.2561,417.28726,614.8915L417.28397,614.8927C417.13132,614.6708,416.8851,614.3102,416.56772,613.8452C416.1589,613.2462,415.66544,612.5231,415.11432,611.7223L413.09613,608.7871L413.67975,608.34485L413.68195,608.34326C419.45944,603.91785,422.53537,596.60547,421.61203,589.52563L421.61118,589.5199C421.18423,586.50037,420.1478,583.25977,418.79135,580.88586L418.79062,580.88477C417.36887,578.41187,414.00934,574.9889,411.58807,573.59204L411.58844,573.593C410.87512,573.1555,410.32776,572.78076,410.05554,572.5665L410.0589,572.5675C410.31384,571.9486,410.86935,570.5707,411.4861,569.0404L411.4861,569.0415L412.74545,565.9566L413.32272,566.2131L413.32272,566.2142C417.94012,568.2886,422.70615,572.7545,425.3801,577.5121L425.38022,577.5132C425.81375,578.303,426.27914,579.04504,426.47617,579.2721L426.47476,579.2732C426.46854,579.2721,426.65305,579.495,426.92422,579.495C427.0309,579.495,427.12442,579.46045,427.129,579.459L427.1293,579.45886C427.39755,579.3699,428.48892,578.8353,429.6774,578.24097L429.6788,578.24023C433.46542,576.3325,435.89853,575.75183,440.37003,575.75183C443.17245,575.75183,444.7313,575.902,446.06778,576.2717L446.06833,576.2717C450.1119,577.38525,454.78345,580.1504,457.46558,583.06494L458.6933,584.41235C458.79773,584.5272,458.9416,584.58606,459.08643,584.58606C459.20392,584.58606,459.32214,584.54724,459.42023,584.468L461.75592,582.5813L461.75732,582.5802C465.69397,579.37787,470.91003,577.0461,476.4007,576.04254L476.40094,576.04376L476.40332,576.0422C477.73242,575.79803,478.98315,575.5173,479.27228,575.4063L479.27258,575.4063L479.2727,575.4073C479.28076,575.40375,479.40155,575.3609,479.4958,575.2668C479.78656,574.97614,479.6292,574.5892,479.61395,574.5484C479.55096,574.38116,479.43945,574.2122,479.3139,574.06586L479.31403,574.06683C478.34448,572.8631,476.80258,567.63336,476.50528,564.1253L476.50504,564.12274L476.29538,561.78687C476.28226,561.6395,476.20816,561.5045,476.09122,561.41406C475.99728,561.34143,475.88284,561.30286,475.76602,561.30286C475.7369,561.30286,475.7078,561.3053,475.67862,561.31006L474.60074,561.48975L474.60074,561.49084C471.77127,561.9614,469.05966,562.198,466.5383,562.198C464.13907,562.198,461.9191,561.9832,459.94778,561.55475L459.9456,561.5544C449.30054,559.28986,441.50244,552.2137,437.54626,541.2016L437.54596,541.20087C436.9862,539.6506,436.61444,538.7083,436.11267,538.3735C435.95148,538.2658,435.77167,538.21027,435.58246,538.21027C435.54028,538.21027,435.5003,538.21295,435.4615,538.2176L435.46124,538.2177L435.45483,538.21844L435.44843,538.2193C434.0536,538.4052,432.69617,538.4982,431.37952,538.4982C426.85675,538.4982,422.77545,537.4036,419.08093,535.2049L419.0808,535.2059C418.05536,534.58966,417.44623,534.23175,416.83636,534.23175C416.50623,534.23175,416.21167,534.33356,415.91956,534.4484L415.91248,534.4511C412.43008,535.8768,408.38333,536.67206,404.65857,536.6721C403.69733,536.6721,402.763,536.6196,401.8631,536.5116L401.85852,536.5111C398.9241,536.18494,395.26413,535.32495,393.52963,534.6022L393.52518,534.60034L392.56686,534.21106C392.50168,534.1846,392.434,534.1719,392.3671,534.1719C392.17917,534.1719,391.9985,534.2721,391.90225,534.44543L390.70602,536.5984C388.97098,539.673,387.39743,543.8231,386.4592,547.78735L386.45853,547.79065C385.7573,550.83936,385.6664,551.84265,385.6664,556.8036C385.66635,561.36804,385.78635,562.9402,386.33694,565.4796C388.45514,575.3444,393.08868,583.7038,400.26242,590.63544L400.26364,590.63666L402.10373,592.40326L400.38974,593.9965L400.38974,593.9975C396.27087,597.81244,392.33704,603.1064,390.03076,607.9609C382.95605,622.71747,385.45807,639.4985,396.6294,652.7907L397.84363,654.2525L396.4475,656.34674C394.14227,659.7742,391.15594,666.01917,389.88342,670.0488L389.88202,670.0531C389.30664,671.9308,388.52264,675.1872,388.15942,677.3061L388.15845,677.31146C387.61298,680.70575,387.5224,681.9693,387.6728,687.08136C387.7929,691.91974,387.97424,693.51666,388.58447,696.1712L388.58545,696.17535C390.58087,704.54974,393.94818,710.78705,399.1283,715.6931L399.12885,715.6937C402.93176,719.28345,406.4311,721.224,411.00195,722.1758L411.00195,722.17676C412.40723,722.4758,413.86743,722.62256,415.3626,722.62256 Z"/>
</g>
<g style="fill:rgb(0,0,0); fill-opacity:1.0; stroke-linejoin: miter">
<path d="M484.4803,670.2012L484.6089,670.1853C484.69867,670.16296,485.15424,670.0762,485.65033,670.01794L485.6635,670.016C487.8219,669.70764,490.44965,668.8804,492.85593,667.723C494.9567,666.734,495.96494,665.97437,497.796,664.11316L497.796,664.11426C501.33334,660.5443,503.0245,656.77527,503.63492,651.28174L503.63492,651.2827C504.45908,643.923,501.8419,635.03796,497.23233,629.29895L497.2283,629.29395C496.83957,628.822,496.4993,628.38745,496.24765,628.0552L496.25015,628.056C496.7214,628.01086,497.37302,627.9607,498.1075,627.9164L498.10825,627.9176C501.7123,627.70264,504.23294,627.0558,507.73456,625.41144L507.73456,625.4128C514.49243,622.24567,519.2816,617.54706,522.6285,610.7925L522.62946,610.7904C524.9998,605.9586,525.588,603.5438,525.6184,598.13184L525.6184,598.1328C525.6485,594.4569,525.5281,593.35095,524.9389,591.30396L524.9389,591.30493C524.204,588.7023,522.5924,585.29626,521.0904,583.15063L521.08875,583.1483C520.5743,582.4218,520.075,581.717,519.9594,581.5434L519.9593,581.5433C519.7788,581.27264,519.47296,581.2609,519.39014,581.2586L519.3915,581.2597C519.37915,581.25836,519.3747,581.25824,519.3625,581.25824C518.8627,581.25824,517.84094,581.63947,516.72217,582.1628L516.72217,582.1639C511.29718,584.6232,507.12012,585.61896,502.11838,585.61896C498.76175,585.61896,496.82944,585.3592,490.49237,583.9841L490.48975,583.9836C487.42255,583.3343,484.78094,582.9924,482.32605,582.9924C478.15015,582.9924,474.56018,583.983,470.38,586.0633L470.38,586.0644C465.39917,588.52325,461.9109,591.67957,460.0475,595.43713L460.04736,595.4381L460.04584,595.44006C459.06995,597.4237,459.0039,597.7831,459.0039,600.9739C459.0039,603.94714,459.09766,604.5952,459.91394,606.5106C460.41083,607.6907,461.53925,609.6703,462.4254,610.92334L462.43402,610.9354L462.43524,610.9369L462.43524,610.938C462.90704,611.58203,463.313,612.15564,463.5916,612.56354L463.59467,612.5645C463.47174,612.5677,463.33557,612.57043,463.18866,612.57043C456.64166,612.57043,450.65115,617.8434,448.957,624.95483C448.42776,627.1339,448.4282,631.38196,448.95657,633.58875L448.95712,633.5912C449.57602,636.1283,451.29276,639.4409,452.99872,641.3642L452.99957,641.36505C454.29303,642.81635,454.9961,643.2779,457.15192,644.1403L457.1576,644.1425C461.22473,645.71576,466.89838,648.7781,469.57538,650.808L469.5783,650.8102C472.7387,653.1731,476.61737,657.20166,478.6469,660.261L478.65063,660.2667C479.52795,661.553,481.01233,664.2516,481.99573,666.2782L481.99713,666.2811C482.86987,668.0532,483.72247,669.62695,484.02167,669.97217L484.02112,669.9734C484.0174,669.97217,484.19745,670.2012,484.4803,670.2012 Z"/>
</g>
<g style="fill:rgb(0,0,0); fill-opacity:1.0; stroke-linejoin: miter">
<path d="M486.11777,549.75806C486.1028,549.7411,486.08945,549.7235,486.07785,549.70593L486.07785,549.70703L486.12057,549.75806 Z M416.6347,447.8758C416.63416,447.87537,416.6336,447.87494,416.63293,447.8744L416.6325,447.87396C416.60712,447.85345,416.59686,447.84277,416.59686,447.84094L416.59808,447.84192C416.60254,447.8429,416.61792,447.85498,416.63806,447.8758 Z M419.2387,441.3553C419.2317,441.35498,419.23358,441.35376,419.24762,441.35376C419.25,441.354,419.25244,441.354,419.25525,441.35413L419.25854,441.3553C419.25177,441.35486,419.2461,441.3551,419.2422,441.3553 Z M501.33694,578.85236C502.6744,578.85236,504.00058,578.7668,505.05185,578.5894L505.05185,578.5904C512.31525,577.36346,519.5033,572.35297,524.034,565.4501L524.03595,565.4469C526.98553,560.88586,528.92456,555.69574,530.0129,549.43805L530.013,549.4367C530.772,545.00385,530.8304,536.4151,530.1659,531.2813L530.1656,531.2785C527.68805,512.87756,518.2694,499.88498,502.7093,493.51523L502.7025,493.51242L502.69653,493.51022L502.69653,493.5112C501.31232,492.96127,499.9367,492.43277,499.30884,492.25504L499.31134,492.25613C499.4773,491.73593,499.8062,490.40775,500.11987,489.1003L500.12024,489.0986C500.67444,486.75888,500.76337,485.35916,500.79333,480.44482L500.79333,480.44153C500.79333,475.19342,500.7046,474.26422,500.05548,471.91516C499.1737,468.72272,497.7436,465.55243,496.11804,463.19092L496.11804,463.19202C494.87933,461.33624,491.84186,458.26996,490.0243,457.0067L490.0243,457.0078C488.19858,455.7381,484.78622,454.21808,482.22507,453.51678L482.2231,453.51624C480.42166,453.03058,477.78696,452.79773,475.12912,452.79773C472.50876,452.79773,469.81638,453.02344,467.80264,453.48108L467.79636,453.48248C466.97916,453.67865,466.246,453.8382,465.7513,453.94208L465.74838,453.94318C465.78488,453.37708,465.85727,452.4762,465.96353,451.4488L465.96408,451.44293C466.54092,445.18878,465.45096,438.62155,462.9785,433.52396L462.97775,433.52243C460.2722,427.9883,455.10928,423.90036,449.14203,422.5469L449.13538,422.54556C447.82135,422.26547,446.74084,422.13602,444.99774,422.13602C444.25415,422.13602,443.38245,422.15964,442.32703,422.20468L442.3288,422.20578C437.80957,422.35623,434.8479,422.9664,430.78247,424.5133L429.46558,425.0011L427.7279,423.44766L427.72803,423.44876C422.52887,418.7628,417.57446,415.92905,412.02722,414.46603L412.02753,414.467C410.49268,414.05887,408.73004,413.90933,405.9325,413.90933L405.9361,413.9103C405.79596,413.90836,405.64563,413.9078,405.51007,413.9078C401.29602,413.9078,399.22653,414.36935,395.704,416.05618C388.29843,419.54483,383.11758,426.08838,380.65634,435.01642C380.06454,437.07233,379.9769,438.27936,379.9767,443.30566C379.94675,448.7716,380.00656,449.42706,380.80313,452.39886L380.80313,452.39996C381.863,456.39618,383.5886,460.54535,385.59134,463.9137L385.5925,463.91553C387.30545,466.7704,390.8088,471.55234,392.03116,472.71176L392.0447,472.72427L392.44022,473.07413L390.8779,474.98367C385.7667,481.21384,382.66788,487.67484,381.42227,494.72318L381.42172,494.72623C380.75168,498.65518,380.96097,505.37936,381.91055,508.96487L381.91055,508.96597C384.1259,517.43164,388.84616,523.92145,395.35556,527.29913C398.14505,528.75244,401.0835,529.4751,404.0465,529.4751C408.10727,529.47504,412.18674,528.11804,415.96997,525.46625L417.47247,524.4319L417.9737,524.8217L417.9737,524.8227C420.3651,526.7279,424.08575,529.00073,426.18427,529.8352L426.18427,529.8363C428.39636,530.73883,428.9508,530.8027,432.27985,530.83307L432.28467,530.83417C435.62952,530.83307,436.12,530.7737,437.81915,529.9402L437.81915,529.94116C440.77618,528.50836,442.86566,525.6025,443.7323,521.91846L443.7323,521.9196C444.23254,519.85,444.22644,515.31323,443.7373,512.7148L443.7373,512.71576C443.58734,511.83682,443.51508,511.0588,443.5174,510.77182L443.52045,510.7728C443.74133,510.56027,444.4259,510.06375,445.30542,509.56113L445.31512,509.55557C446.38696,508.91245,448.27332,507.5742,449.4693,506.5009L449.46942,506.50186C454.91452,501.81308,457.82108,496.1979,457.82108,490.17404C457.82108,485.32364,456.47153,482.16666,452.87564,478.54013C450.97614,476.61002,450.026,475.94467,447.6352,474.81067C444.67505,473.39124,441.97162,472.52197,439.8706,472.36536L439.87085,472.36633L438.76605,472.27576C438.75165,472.27448,438.73706,472.27393,438.72278,472.27393C438.4972,472.27386,438.29382,472.41718,438.2199,472.63385L437.32153,475.2691L437.3211,475.27002C434.81805,482.6616,430.53668,487.66867,423.96167,490.95627C422.13434,491.8701,419.33374,492.89926,417.77478,493.21683L417.76727,493.21835L417.3286,493.31418L416.93286,491.49814L416.93286,491.49924C416.7102,490.4343,416.38422,488.99747,416.16113,488.01407L416.16113,488.01407C416.12225,487.84262,416.06152,487.57498,416.03363,487.45157L415.75604,486.21317L416.49127,486.0159L416.49158,486.0168C417.22736,485.8232,418.76013,485.20767,419.92004,484.702L419.93182,484.69662C429.97913,480.02213,433.8178,469.6664,429.2279,459.8014C429.16925,459.6753,429.1106,459.55225,429.04913,459.42615L429.04816,459.42407C426.86823,455.00305,423.58044,451.69208,418.79272,449.09985L418.7862,449.09656C417.94928,448.6582,417.25525,448.2649,416.8907,448.04266L416.89398,448.04376C417.34863,446.79938,418.99152,442.59088,419.4815,441.3991C419.75287,441.47107,420.21136,441.62952,420.77985,441.8781L420.77997,441.8792C429.02148,445.52795,435.9369,453.72156,437.75464,462.01874L437.75476,462.0196L438.26385,464.32544C438.31232,464.54425,438.4925,464.70917,438.7146,464.73798L440.33173,464.94757L440.33435,464.948C447.42963,465.83112,455.0585,469.844,459.27768,474.85382C461.23648,477.1924,463.65463,481.79514,464.41232,484.62198L464.41318,484.62473C465.0803,487.0613,465.31723,492.85062,464.85208,495.4094L464.85178,495.4106C463.6191,502.2789,459.71396,508.54068,453.82742,512.98584L453.8276,512.9868L452.1805,514.21356C452.04593,514.31396,451.9666,514.47186,451.9666,514.6397L451.9666,517.33484C451.9666,520.7837,451.32806,523.54987,449.7444,526.86456C448.66425,529.0835,448.0099,530.026,445.95093,532.1143L445.9491,532.11615L443.4038,534.7214C443.2641,534.8643,443.2165,535.0732,443.2802,535.2624L444.23853,538.10736C445.8792,543.1491,447.99048,546.5257,451.27283,549.50116L451.273,549.5014C455.14517,553.0074,460.22336,554.7492,466.27896,554.74915C470.93454,554.74915,476.1716,553.7207,481.90402,551.67444L481.91373,551.6709L481.91385,551.6719C483.51865,551.0919,485.17307,550.4646,485.7994,550.1666C485.69412,550.49756,485.5482,550.9125,485.36533,551.3633L485.35934,551.37866C483.42,556.621,482.79135,562.6067,483.8763,566.6412L483.8763,566.6423C485.45746,572.65533,490.29346,577.1082,496.5576,578.43536L496.5574,578.43634C497.86478,578.7142,499.63382,578.85236,501.33694,578.85236 Z"/>
</g>
</g>
<g>
<g style="fill:rgb(35,31,32); fill-opacity:1.0; stroke-linejoin: miter">
<path d="M449.0662,951.966L288.51517,952.4736L288.59857,978.84174L449.14963,978.3327L449.0662,951.966"/>
</g>
<g style="fill:rgb(35,31,32); fill-opacity:1.0; stroke-linejoin: miter">
<path d="M449.23575,1005.4825L288.6845,1005.99L288.7691,1032.7501L449.32053,1032.2408L449.23575,1005.4825"/>
</g>
<g style="fill:rgb(35,31,32); fill-opacity:1.0; stroke-linejoin: miter">
<path d="M422.64642,1059.0844L315.61295,1059.4221L315.69748,1086.1818L422.73114,1085.842L422.64642,1059.0844 Z"/>
</g>
<g style="fill:rgb(0,0,0); fill-opacity:1.0; stroke-linejoin: miter">
<path d="M366.34622,337.0658L350.95493,337.55203Q281.5975,345.57608,247.42458,368.1749Q205.02374,392.65265,174.74835,430.00806Q145.34781,466.8685,133.09604,512.0803Q120.04445,554.42883,129.68849,611.04224Q136.96846,648.0541,155.24547,681.0513L215.90833,768.16455Q229.22327,786.3685,238.54594,808.7959Q262.10132,863.296,260.49835,925.2187L475.34692,924.53735Q472.6983,861.9576,495.11752,807.4695Q508.26562,777.8588,508.30206,780.66144L572.5666,689.93915Q583.801,674.4715,598.0576,633.1891Q608.8987,590.83466,608.0233,571.5673Q609.3738,563.45917,603.27765,525.1463Q600.6829,501.42783,574.9906,453.8622Q550.5577,414.57098,510.9726,384.91104Q444.7302,337.05936,366.34622,337.0658 M367.00858,362.99484L380.2475,363.4102Q458.32468,364.43774,532.38477,441.12338L548.0198,461.24255Q562.17993,482.278,570.3342,505.7178Q586.69604,553.228,578.40656,602.788Q574.2357,627.2526,563.7448,650.3381L551.6476,672.76337Q482.07697,766.9032,468.63593,802.20776Q447.14133,858.86554,448.7009,898.2555L421.94287,898.3395L421.35013,711.0302L422.882,707.9421L395.29346,709.23346L394.3958,711.1154L394.98846,898.4248L341.47147,898.59326L340.88034,711.78174L313.92142,713.0439L314.51642,898.6798L287.7584,898.76337Q287.12332,842.85254,262.76883,792.8165Q241.03685,751.29175,238.58086,749.515L182.99535,673.9304Q169.16644,652.0946,161.69733,628.20886Q146.80763,579.8063,156.77472,530.7738Q171.83221,456.79407,240.69606,405.2046Q298.4125,363.00037,367.00858,362.99484"/>
</g>
</g>
</g>
</svg>