<?xml version="1.0" encoding="UTF-8"?>
<svg viewBox="0 0 500 450" xmlns="http://www.w3.org/2000/svg">
 <g transform="translate(14.44 9.9282)" fill-rule="evenodd">
  <path transform="matrix(.59329 0 0 .59329 -16.394 142.92)" d="m257.44 30.841c-109.18 1.7544-205.48 62.597-225.93 148.91-23.357 98.599 61.082 193.28 188.51 211.41 0.02681 0.15189-0.01834 0.37662-0.03045 0.59375l-0.73076 0.03125-99.292 92.344 204-95.844-2.0096 0.0625 1.3093-1 2.923-0.09375-2.2227 1.0312 2.8012-0.09375v-0.96875h0.03045c88.273-19.445 150.16-72.131 166.7-141.97 23.366-98.639-61.177-193.36-188.69-211.44-15.939-2.2595-31.78-3.2194-47.377-2.9688z" fill-opacity=".49804"/>
  <path d="m152.99 140.41c-64.775 1.0408-121.91 37.138-134.04 88.345-13.857 58.498 36.239 114.67 111.84 125.43 0.0159 0.09012-0.01089 0.22346-0.01807 0.35227l-0.43355 0.01854-58.909 54.787 121.03-56.863-1.1923 0.03708 0.77679-0.59329 1.7342-0.05562-1.3187 0.61183 1.662-0.05562v-0.57476h0.01806c52.372-11.537 89.089-42.795 98.904-84.229 13.863-58.522-36.296-114.72-111.95-125.44-9.4564-1.3405-18.855-1.91-28.109-1.7613z" fill="#fff" stroke="#39f" stroke-linecap="round" stroke-linejoin="round" stroke-width="15"/>
  <path transform="matrix(-.74616 0 0 .74616 459.97 7.0539)" d="m257.44 30.841c-109.18 1.7544-205.48 62.597-225.93 148.91-23.357 98.599 61.082 193.28 188.51 211.41 0.02681 0.15189-0.01834 0.37662-0.03045 0.59375l-0.73076 0.03125-99.292 92.344 204-95.844-2.0096 0.0625 1.3093-1 2.923-0.09375-2.2227 1.0312 2.8012-0.09375v-0.96875h0.03045c88.273-19.445 150.16-72.131 166.7-141.97 23.366-98.639-61.177-193.36-188.69-211.44-15.939-2.2595-31.78-3.2194-47.377-2.9688z" fill-opacity=".49804"/>
  <path d="m289.65 10.029c81.465 1.309 153.32 46.707 168.58 111.11 17.428 73.57-45.577 144.21-140.65 157.74-0.02001 0.11335 0.01369 0.28104 0.02272 0.44304l0.54526 0.02332 74.087 68.903-152.22-71.515 1.4995 0.04663-0.97692-0.74616-2.181-0.06995 1.6585 0.76948-2.0902-0.06995v-0.72285h-0.02272c-65.865-14.509-112.04-53.821-124.39-105.93-17.435-73.601 45.648-144.28 140.79-157.77 11.893-1.6859 23.713-2.4022 35.351-2.2152z" fill="#fff" stroke="#39f" stroke-linecap="round" stroke-linejoin="round" stroke-width="20"/>
 </g>
</svg>
