<?xml version="1.0" encoding="UTF-8"?>
<svg width="612pt" height="792pt" version="1.1" xmlns="http://www.w3.org/2000/svg">
 <g stroke-width="10">
  <g fill="none" stroke="#000" stroke-miterlimit="26.3">
   <rect x="106.69" y="114.96" width="60.89" height="60.89"/>
   <rect x="187.58" y="114.96" width="60.89" height="60.89"/>
   <rect x="268.47" y="114.96" width="60.89" height="60.89"/>
  </g>
  <g stroke="#000" stroke-linecap="round" stroke-linejoin="round" stroke-miterlimit="26.3">
   <path d="m212.13 50.137 12.767 0.49105-2.9463 38.302h-6.8746z"/>
   <path d="m258.04 55.682 10.811 6.8089-21.702 31.697-5.9536-3.4373z"/>
   <path d="m167.5 62.45 11.302-5.9583 16.599 34.643-5.9536 3.4373z"/>
  </g>
  <path d="m217.44 382.01h65.855v-12.202l0.01-0.91789 0.0293-0.91721 0.0487-0.91686 0.0681-0.91517 0.0881-0.9138 0.10686-0.91176 0.12661-0.90904 0.14566-0.90632 0.16507-0.90291 0.18446-0.89917 0.20318-0.89508 0.2219-0.89066 0.24096-0.88556 0.26001-0.88045 0.27874-0.87466 0.29711-0.86854 0.31549-0.86173 0.33387-0.85527 0.35157-0.84777 0.36995-0.83996 0.38764-0.83212 0.40568-0.82361 0.42236-0.81477 0.43971-0.80557 0.45674-0.79605 0.47374-0.78618 0.49077-0.77596 0.50676-0.76542 0.52242-0.75453 0.56734-0.81782 0.55032-0.82906 0.53297-0.84029 0.51595-0.85119 0.49791-0.86173 0.48055-0.8716 0.46218-0.88113 0.44414-0.89066 0.42576-0.89985 0.40704-0.90802 0.38867-0.91618 0.36892-0.92436 0.35089-0.9315 0.33081-0.9383 0.31208-0.94512 0.29201-0.95124 0.27295-0.95736 0.25253-0.96248 0.23347-0.96757 0.21271-0.972 0.19365-0.97643 0.17289-0.97983 0.15282-0.98357 0.13273-0.98626 0.11231-0.98868 0.0915-0.99106 0.0715-0.99276 0.051-0.99378 0.031-0.9948 0.0102-0.99515v-56.782l-0.01-0.48566-0.0293-0.48463-0.049-0.48328-0.0681-0.4809-0.0875-0.47749-0.10653-0.47375-0.12626-0.46932-0.1443-0.46354-0.16268-0.45775-0.18174-0.45027-0.19944-0.44311-0.21679-0.43427-0.2345-0.42542-0.25082-0.4159-0.26819-0.405-0.28384-0.39411-0.29916-0.38219-0.31481-0.36995-0.32944-0.35701-0.34306-0.3434-0.35735-0.32945-0.36995-0.31447-0.38254-0.29949-0.39377-0.28418-0.40534-0.26751-0.41521-0.25151-0.42542-0.23415-0.43461-0.21713-0.44312-0.1991-0.4506-0.1814-0.45741-0.16302-0.46354-0.14464-0.46933-0.12559-0.4734-0.10686-0.47784-0.0875-0.48123-0.0681-0.48294-0.049-0.48498-0.0293-0.48566-0.01-0.48532 0.01-0.48498 0.0293-0.48293 0.049-0.48056 0.0681-0.47817 0.0875-0.47375 0.10686-0.46932 0.12559-0.46354 0.14464-0.45707 0.16302-0.45095 0.1814-0.44312 0.1991-0.43427 0.21713-0.42508 0.23415-0.41589 0.25151-0.405 0.26751-0.39411 0.28418-0.3822 0.29949-0.37028 0.31447-0.35667 0.32945-0.34374 0.3434-0.32945 0.35701-0.31447 0.36995-0.2995 0.38219-0.28418 0.39411-0.26716 0.405-0.25185 0.4159-0.23415 0.42542-0.2168 0.43427-0.19943 0.44311-0.18106 0.45027-0.16302 0.45775-0.14499 0.46354-0.12524 0.46932-0.10721 0.47375-0.0875 0.47749-0.0677 0.4809-0.049 0.48328-0.0296 0.48463-0.01 0.48566v-10.312l-0.01-0.48702-0.0296-0.48668-0.049-0.48498-0.0684-0.4826-0.0878-0.47953-0.1072-0.47545-0.12627-0.47069-0.14498-0.46558-0.1637-0.45911-0.1814-0.45231-0.20046-0.44448-0.21782-0.43597-0.23483-0.42678-0.25219-0.41725-0.26886-0.4067-0.28521-0.39547-0.30051-0.38356-0.31584-0.37131-0.33012-0.35837-0.3451-0.34476-0.35838-0.33047-0.37096-0.31583-0.38356-0.30052-0.39581-0.28486-0.40637-0.26887-0.41725-0.25219-0.42712-0.23517-0.43631-0.21781-0.44448-0.20012-0.45197-0.18174-0.45911-0.1637-0.46558-0.14499-0.47069-0.12626-0.47545-0.10721-0.47953-0.0878-0.4826-0.0684-0.48464-0.049-0.48702-0.0296-0.48736-0.01-0.48702 0.01-0.48668 0.0296-0.48498 0.049-0.4826 0.0684-0.47953 0.0878-0.47545 0.10721-0.47103 0.12626-0.46524 0.14499-0.45911 0.1637-0.45197 0.18174-0.44482 0.20012-0.43597 0.21781-0.42712 0.23517-0.41691 0.25219-0.40636 0.26887-0.39581 0.28486-0.3839 0.30052-0.37131 0.31583-0.35804 0.33047-0.34476 0.34476-0.33046 0.35837-0.31583 0.37131-0.30052 0.38356-0.28486 0.39547-0.26887 0.4067-0.25219 0.41725-0.23483 0.42678-0.21782 0.43597-0.20045 0.44448-0.18208 0.45231-0.16302 0.45911-0.14567 0.46558-0.12592 0.47069-0.10721 0.47545-0.0875 0.47953-0.0684 0.4826-0.049 0.48498-0.0296 0.48668-0.0102 0.48702v-4.6153l-9e-3 -0.48736-0.0296-0.48634-0.049-0.48498-0.0684-0.48294-0.0878-0.47919-0.10755-0.47545-0.12626-0.47103-0.14465-0.46524-0.1637-0.45911-0.18208-0.45231-0.19978-0.44448-0.21781-0.43597-0.23551-0.42712-0.25219-0.41725-0.26887-0.40636-0.28486-0.39547-0.30052-0.3839-0.31549-0.37131-0.33081-0.35838-0.34476-0.34442-0.35803-0.33046-0.37131-0.31583-0.3839-0.30086-0.39513-0.28486-0.40704-0.26887-0.41725-0.25185-0.42678-0.23517-0.43597-0.21782-0.44414-0.20011-0.45265-0.18208-0.45911-0.16371-0.46559-0.14498-0.47034-0.12592-0.47579-0.10721-0.47919-0.0878-0.48294-0.0687-0.48498-0.049-0.48668-0.0293-0.48702-0.01-0.48736 0.01-0.48635 0.0293-0.48497 0.049-0.48294 0.0687-0.4792 0.0878-0.47579 0.10721-0.47034 0.12592-0.46558 0.14498-0.45911 0.16371-0.45231 0.18208-0.44448 0.20011-0.43597 0.21782-0.42678 0.23517-0.41726 0.25185-0.4067 0.26887-0.39547 0.28486-0.38356 0.30086-0.3713 0.31583-0.35838 0.33046-0.34476 0.34442-0.33047 0.35838-0.31583 0.37131-0.30052 0.3839-0.28486 0.39547-0.26886 0.40636-0.25219 0.41725-0.23517 0.42712-0.21782 0.43597-0.20012 0.44448-0.18174 0.45231-0.1637 0.45911-0.14498 0.46524-0.12627 0.47103-0.1072 0.47545-0.0878 0.47919-0.0684 0.48294-0.049 0.48498-0.0296 0.48634-0.01 0.48736v-37.502l-0.01-0.48532-0.0293-0.48498-0.049-0.48328-0.0681-0.4809-0.0875-0.47749-0.10686-0.47375-0.12558-0.46932-0.14465-0.46354-0.16302-0.45741-0.1814-0.4506-0.1991-0.44312-0.21713-0.43427-0.23449-0.42542-0.25117-0.41555-0.26784-0.40534-0.28384-0.39411-0.2995-0.3822-0.31447-0.36995-0.32945-0.35701-0.3434-0.3434-0.35701-0.32944-0.36995-0.31448-0.38219-0.29949-0.39411-0.28418-0.40534-0.26751-0.41555-0.25151-0.42542-0.23415-0.43461-0.21713-0.44278-0.1991-0.45061-0.1814-0.45741-0.16302-0.46354-0.14464-0.46932-0.12559-0.47375-0.10686-0.47783-0.0875-0.48056-0.0681-0.48327-0.049-0.48498-0.0293-0.48532-0.01-0.48566 0.01-0.48498 0.0293-0.48294 0.049-0.48089 0.0681-0.47784 0.0875-0.47375 0.10686-0.46932 0.12559-0.46354 0.14464-0.45741 0.16302-0.4506 0.1814-0.44278 0.1991-0.43461 0.21713-0.42542 0.23415-0.41555 0.25151-0.40534 0.26751-0.39411 0.28418-0.3822 0.29949-0.36995 0.31448-0.35701 0.32944-0.3434 0.3434-0.3291 0.35701-0.31482 0.36995-0.29949 0.3822-0.28384 0.39411-0.26785 0.40534-0.25116 0.41555-0.2345 0.42542-0.21679 0.43427-0.19944 0.44312-0.1814 0.4506-0.16302 0.45741-0.14464 0.46354-0.12559 0.46932-0.10652 0.47375-0.0878 0.47749-0.0681 0.4809-0.049 0.48328-0.0293 0.48498-0.01 0.48532v71.93l-0.28316-0.61397-0.3012-0.60512-0.31923-0.59627-0.3366-0.58606-0.35395-0.57618-0.37096-0.5653-0.38765-0.55407-0.40364-0.5425-0.41963-0.5299-0.43529-0.51765-0.45027-0.50438-0.46524-0.49077-0.47919-0.47647-0.49349-0.46251-0.50676-0.44721-0.52003-0.43222-0.53263-0.41692-0.54454-0.40057-0.55645-0.38424-0.56734-0.36756-0.57789-0.35089-0.58844-0.33319-0.59763-0.31583-0.60716-0.2978-0.61533-0.27975-0.62384-0.26138-0.63098-0.243-0.63779-0.22394-0.64426-0.20489-0.65038-0.18548-0.65515-0.16642-0.65991-0.14703-0.66434-0.12728-0.6674-0.10721-0.67046-0.0878-0.6725-0.0677-0.67455-0.0476-0.67557-0.0276-0.67625-8e-3 -0.6759 0.0123-0.67523 0.0327-0.67421 0.0524-0.67216 0.0725-0.47954 0.0684-0.47613 0.0878-0.47238 0.10686-0.46762 0.12525-0.46218 0.1443-0.45605 0.16234-0.44959 0.18072-0.44141 0.19841-0.43359 0.21612-0.4244 0.23313-0.41487 0.2498-0.40432 0.26615-0.39343 0.28248-0.38186 0.29779-0.3696 0.31277-0.35702 0.3274-0.34339 0.34136-0.32945 0.35463-0.31515 0.3679-0.29984 0.37982-0.28486 0.39173-0.26852 0.40296-0.25253 0.41316-0.23586 0.42304-0.21849 0.43223-0.20114 0.44039-0.18344 0.44823-0.16507 0.45503-0.14702 0.46149-0.12831 0.46694-0.10959 0.47171-0.0905 0.47545-0.0718 0.47919-0.0521 0.48124-0.033 0.48294-0.0136 0.4843 5e-3 0.48395 0.0252 0.48362 0.0442 0.48226 0.064 0.48021 0.0827 0.47682 0.10176 0.4734 0.12082 0.46899 0.1392 0.46387 0.15792 0.45776 0.17595 0.45128 0.19365 0.44346 0.21169 0.43563 0.22871 0.42678 0.24538 0.4176 0.26206 0.40704 0.27839 0.39649 0.29372 0.38492 0.30902 0.37267 0.32366 0.36008 0.33761 0.34714 0.35157 0.33319 0.3645 0.31889c6.49 8.8348 10.923 2.5956 12.548 10.632l0.19025 0.51357 0.17085 0.52003 0.15111 0.52616 0.13171 0.53161 0.11163 0.53603 0.0915 0.54011 0.0715 0.54284 0.0511 0.54522 0.0306 0.54658 0.0102 0.5476v4.7885l0.01 1.0693 0.03 1.069 0.05 1.0683 0.0698 1.0673 0.0895 1.0656 0.10959 1.0639 0.12932 1.0615 0.14941 1.0591 0.16881 1.0561 0.18855 1.0527 0.20828 1.0489 0.22769 1.0448 0.24708 1.0404 0.26682 1.036 0.28555 1.0305 0.30528 1.0251 0.324 1.019 0.34306 1.0132 0.36178 1.0064 0.38049 0.99922 0.39922 0.99209 0.41759 0.98459 0.43597 0.97676 0.45401 0.96826 0.47204 0.95975 0.49009 0.95056 0.50744 0.94137 0.5248 0.93184 0.5425 0.92163 0.55917 0.91142 0.57653 0.90087 0.59286 0.88998 0.60955 0.87909 0.62587 0.86718 0.64188 0.85526 0.65753 0.84336 0.67352 0.83076 0.68885 0.81817 0.70381 0.80523 0.71879 0.79196 0.73343 0.77835 0.74772 0.76474 0.76201 0.75044 0.77563 0.73581 0.78958 0.72155 0.80285 0.70687 0.81579 0.69157 0.82837 0.67625 0.84098 0.66059 0.50369 0.40092 0.49111 0.41657 0.47715 0.43188 0.46388 0.44687 0.44924 0.46115 0.43461 0.47477 0.4193 0.48872 0.40364 0.50132 0.38798 0.51425 0.37131 0.52582 0.35429 0.53739 0.33761 0.54828 0.31992 0.55849 0.30221 0.5687 0.28419 0.57756 0.2658 0.58639 0.24742 0.59457 0.22837 0.60206 0.20931 0.60886 0.1899 0.61499 0.17051 0.62111 0.15077 0.62588 0.13103 0.6303 0.11095 0.63405 0.0912 0.63745 0.0708 0.63983 0.0507 0.64188 0.0303 0.64323 0.0102 0.64358v12.202z" fill="#fff"/>
  <path d="m291.25 344.84 0.56735-0.81783 0.55032-0.82906 0.53297-0.84029 0.51595-0.85118 0.49791-0.86173 0.48055-0.8716 0.46218-0.88113 0.44414-0.89066 0.42576-0.89985 0.40704-0.90802 0.38867-0.91618 0.36892-0.92436 0.35089-0.9315 0.3308-0.93831 0.31209-0.94511 0.29201-0.95124 0.27295-0.95737 0.25253-0.96247 0.23347-0.96757 0.21271-0.972 0.19365-0.97643 0.17289-0.97983 0.15282-0.98357 0.13273-0.98629 0.11231-0.98868 0.0915-0.99106 0.0715-0.99276 0.051-0.99379 0.031-0.9948 0.0102-0.99514m-96.649-109.21v86.667m24.119-86.667v75.167m72.529-22.738v56.782m-24.119-67.094v33.05m-24.206-37.665v37.665m-64.691 25.428v-4.7885m30.291 66.369v12.202m65.855-12.202v12.202m-55.659-174.38-0.01-0.48532-0.0293-0.48498-0.049-0.48328-0.0681-0.48089-0.0875-0.47749-0.10686-0.47375-0.12559-0.46933-0.14464-0.46353-0.16302-0.45742-0.1814-0.4506-0.1991-0.44312-0.21713-0.43427-0.23449-0.42542-0.25117-0.41555-0.26784-0.40534-0.28385-0.39411-0.29949-0.3822-0.31447-0.36994-0.32945-0.35702-0.3434-0.3434-0.35701-0.32944-0.36995-0.31447-0.38219-0.2995-0.39411-0.28418-0.40534-0.2675-0.41555-0.25151-0.42542-0.23415-0.43461-0.21714-0.44278-0.1991-0.45061-0.18139-0.45741-0.16303-0.46354-0.14464-0.46932-0.12558-0.47375-0.10687-0.47783-0.0875-0.48056-0.0681-0.48327-0.049-0.48498-0.0293-0.48532-0.01-0.48566 0.01-0.48498 0.0293-0.48294 0.049-0.4809 0.0681-0.47783 0.0875-0.47375 0.10687-0.46932 0.12558-0.46354 0.14464-0.45741 0.16303-0.45061 0.18139-0.44277 0.1991-0.43461 0.21714-0.42542 0.23415-0.41555 0.25151-0.40534 0.2675-0.39411 0.28418-0.3822 0.2995-0.36995 0.31447-0.35701 0.32944-0.3434 0.3434-0.3291 0.35702-0.31482 0.36994-0.29949 0.3822-0.28384 0.39411-0.26785 0.40534-0.25117 0.41555-0.23449 0.42542-0.21679 0.43427-0.19944 0.44312-0.1814 0.4506-0.16302 0.45742-0.14464 0.46353-0.12559 0.46933-0.10652 0.47375-0.0878 0.47749-0.0681 0.48089-0.049 0.48328-0.0293 0.48498-0.01 0.48532m5.9668 146-0.84097-0.6606-0.82837-0.67625-0.81579-0.69156-0.80285-0.70688-0.78959-0.72155-0.77562-0.7358-0.76201-0.75044-0.74772-0.76474-0.73343-0.77835-0.71879-0.79196-0.70381-0.80524-0.68885-0.81817-0.67352-0.83076-0.65753-0.84335-0.64188-0.85527-0.62587-0.86717-0.60955-0.87909-0.59286-0.88998-0.57653-0.90087-0.55917-0.91142-0.5425-0.92163-0.5248-0.93184-0.50744-0.94138-0.49009-0.95055-0.47204-0.95975-0.45401-0.96826-0.43597-0.97677-0.41759-0.98459-0.39922-0.99208-0.3805-0.99923-0.36177-1.0064-0.34306-1.0132-0.324-1.019-0.30528-1.0251-0.28555-1.0305-0.26682-1.036-0.24708-1.0404-0.22769-1.0448-0.20828-1.0489-0.18855-1.0527-0.16881-1.0561-0.14941-1.0591-0.12932-1.0615-0.10959-1.0639-0.0895-1.0656-0.0698-1.0673-0.05-1.0683-0.03-1.069-0.01-1.0693m-7.2481-42.052-0.47954 0.0684-0.47613 0.0878-0.47238 0.10687-0.46763 0.12524-0.46217 0.1443-0.45605 0.16234-0.44959 0.18072-0.44141 0.19842-0.43359 0.21611-0.4244 0.23313-0.41487 0.24981-0.40432 0.26614-0.39343 0.28248-0.38186 0.2978-0.3696 0.31276-0.35702 0.32741-0.34339 0.34136-0.32945 0.35463-0.31515 0.3679-0.29984 0.37981-0.28486 0.39173-0.26853 0.40296-0.25252 0.41317-0.23586 0.42304-0.21849 0.43222-0.20114 0.4404-0.18344 0.44822-0.16507 0.45503-0.14702 0.4615-0.12831 0.46694-0.10959 0.47171-0.0905 0.47545-0.0718 0.47919-0.0521 0.48123-0.033 0.48294-0.0136 0.4843 5e-3 0.48396 0.0252 0.48362 0.0443 0.48225 0.064 0.48022 0.0827 0.47681 0.10176 0.47341 0.12082 0.46898 0.1392 0.46388 0.15792 0.45775 0.17595 0.45129 0.19365 0.44346 0.21169 0.43563 0.22871 0.42678 0.24538 0.41759 0.26206 0.40704 0.27839 0.3965 0.29371 0.38492 0.30903 0.37266 0.32366 0.36008 0.33761 0.34714 0.35157 0.33319 0.3645 0.3189 0.37675 0.30392 0.38901 0.2886 0.39989 0.27295 0.41045 0.25662 0.42065 0.24027m76.254-43.685-9e-3 -0.48736-0.0296-0.48634-0.049-0.48498-0.0684-0.48294-0.0878-0.47919-0.10755-0.47545-0.12626-0.47103-0.14464-0.46524-0.16371-0.45911-0.18208-0.45231-0.19977-0.44448-0.21782-0.43597-0.23551-0.42712-0.25219-0.41726-0.26887-0.40636-0.28486-0.39547-0.30052-0.3839-0.31549-0.3713-0.3308-0.35838-0.34477-0.34442-0.35803-0.33047-0.37131-0.31583-0.3839-0.30085-0.39513-0.28487-0.40704-0.26886-0.41725-0.25185-0.42678-0.23517-0.43597-0.21782-0.44414-0.20012-0.45265-0.18208-0.45911-0.1637-0.46558-0.14498-0.47035-0.12593-0.47579-0.1072-0.47919-0.0878-0.48294-0.0687-0.48498-0.049-0.48668-0.0293-0.48702-0.01-0.48736 0.01-0.48634 0.0293-0.48498 0.049-0.48294 0.0687-0.47919 0.0878-0.47579 0.1072-0.47035 0.12593-0.46558 0.14498-0.45911 0.1637-0.45231 0.18208-0.44448 0.20012-0.43597 0.21782-0.42678 0.23517-0.41725 0.25185-0.40671 0.26886-0.39547 0.28487-0.38356 0.30085-0.3713 0.31583-0.35838 0.33047-0.34476 0.34442-0.33046 0.35838-0.31584 0.3713-0.30051 0.3839-0.28487 0.39547-0.26886 0.40636-0.25219 0.41726-0.23517 0.42712-0.21782 0.43597-0.20012 0.44448-0.18174 0.45231-0.1637 0.45911-0.14498 0.46524-0.12627 0.47103-0.1072 0.47545-0.0878 0.47919-0.0684 0.48294-0.049 0.48498-0.0296 0.48634-0.01 0.48736m24.205 4.6153 0.0102-0.48702 0.0296-0.48668 0.049-0.48498 0.0684-0.4826 0.0875-0.47953 0.10721-0.47545 0.12592-0.47069 0.14567-0.46558 0.16302-0.45911 0.18208-0.45231 0.20046-0.44448 0.21781-0.43597 0.23483-0.42678 0.25219-0.41725 0.26887-0.40671 0.28486-0.39547 0.30052-0.38356 0.31583-0.3713 0.33047-0.35838 0.34476-0.34476 0.35803-0.33046 0.37131-0.31584 0.3839-0.30051 0.39581-0.28486 0.40636-0.26887 0.41691-0.25219 0.42712-0.23517 0.43597-0.21782 0.44482-0.20012 0.45197-0.18173 0.45911-0.16371 0.46524-0.14498 0.47103-0.12626 0.47545-0.10721 0.47953-0.0878 0.4826-0.0684 0.48498-0.049 0.48668-0.0296 0.48702-0.01 0.48736 0.01 0.48703 0.0296 0.48463 0.049 0.4826 0.0684 0.47954 0.0878 0.47545 0.10721 0.47068 0.12626 0.46558 0.14498 0.45911 0.16371 0.45197 0.18173 0.44448 0.20012 0.43631 0.21782 0.42712 0.23517 0.41726 0.25219 0.40636 0.26887 0.39581 0.28486 0.38356 0.30051 0.37096 0.31584 0.35838 0.33046 0.3451 0.34476 0.33013 0.35838 0.31583 0.3713 0.30052 0.38356 0.2852 0.39547 0.26886 0.40671 0.25219 0.41725 0.23483 0.42678 0.21782 0.43597 0.20046 0.44448 0.1814 0.45231 0.1637 0.45911 0.14498 0.46558 0.12627 0.47069 0.1072 0.47545 0.0878 0.47953 0.0684 0.4826 0.049 0.48498 0.0296 0.48668 0.01 0.48702m-88.896 53.688-0.0102-0.5476-0.0306-0.54658-0.0511-0.54522-0.0715-0.54283-0.0915-0.54012-0.11163-0.53603-0.13171-0.5316-0.15111-0.52616-0.17085-0.52004-0.19024-0.51357-0.20931-0.50608-0.22803-0.49791c-4.0548-3.7234-6.3066-5.9811-10.239-8.4032m4.4385-22.505 0.67217-0.0725 0.6742-0.0524 0.67523-0.0327 0.67591-0.0122 0.67625 8e-3 0.67556 0.0276 0.67455 0.0477 0.6725 0.0677 0.67047 0.0878 0.6674 0.10721 0.66433 0.12728 0.65992 0.14703 0.65514 0.16642 0.65039 0.18549 0.64425 0.20488 0.63779 0.22394 0.63099 0.243 0.62383 0.26138 0.61533 0.27976 0.60716 0.29779 0.59763 0.31583 0.58844 0.33319 0.57789 0.35089 0.56735 0.36756 0.55645 0.38424 0.54453 0.40058 0.53263 0.41691 0.52003 0.43223 0.50676 0.4472 0.49349 0.46252 0.4792 0.47647 0.46524 0.49076 0.45026 0.50438 0.43529 0.51765 0.41964 0.52991 0.40363 0.54249 0.38765 0.55407 0.37096 0.5653 0.35395 0.57619 0.3366 0.58606 0.31923 0.59627 0.3012 0.60511 0.28316 0.61397m13.924 90.247-0.0102-0.64358-0.0303-0.64324-0.0507-0.64187-0.0708-0.63983-0.0912-0.63745-0.11095-0.63405-0.13103-0.6303-0.15077-0.62588-0.1705-0.62111-0.18991-0.61499-0.20931-0.60886-0.22837-0.60206-0.24742-0.59457-0.2658-0.5864-0.28418-0.57755-0.30222-0.5687-0.31992-0.55849-0.33761-0.54828-0.35429-0.53739-0.37131-0.52582-0.38798-0.51425-0.40364-0.50132-0.4193-0.48872-0.43461-0.47477-0.44924-0.46116-0.46388-0.44686-0.47715-0.43188-0.4911-0.41658-0.5037-0.40091m73.812 16.177 0.01-0.91789 0.0293-0.91717 0.0487-0.91687 0.0681-0.91516 0.0882-0.91381 0.10687-0.91176 0.1266-0.90904 0.14566-0.90631 0.16507-0.90291 0.18446-0.89917 0.20318-0.89509 0.2219-0.89066 0.24096-0.88555 0.26002-0.88045 0.27873-0.87467 0.29711-0.86854 0.3155-0.86173 0.33387-0.85526 0.35156-0.84778 0.36995-0.83995 0.38764-0.83212 0.40568-0.82362 0.42236-0.81476 0.43972-0.80558 0.45673-0.79605 0.47375-0.78617 0.49076-0.77597 0.50676-0.76542 0.52242-0.75452m-87.729-50.543-0.01 0.82294-0.0296 0.82259-0.0494 0.82157m72.618-36.703 0.01-0.48566 0.0296-0.48464 0.049-0.48328 0.0677-0.4809 0.0875-0.47749 0.1072-0.47375 0.12525-0.46932 0.14498-0.46354 0.16302-0.45775 0.18106-0.45027 0.19944-0.44311 0.21679-0.43427 0.23415-0.42542 0.25185-0.41589 0.26716-0.405 0.28419-0.39411 0.29949-0.3822 0.31447-0.36995 0.32945-0.35701 0.34374-0.3434 0.35667-0.32944 0.37029-0.31448 0.38219-0.29949 0.39411-0.28418 0.405-0.26751 0.41589-0.25151 0.42508-0.23415 0.43427-0.21713 0.44312-0.1991 0.45095-0.1814 0.45707-0.16302 0.46354-0.14464 0.46932-0.12559 0.47375-0.10686 0.47817-0.0875 0.48056-0.0681 0.48293-0.049 0.48498-0.0293 0.48532-0.01 0.48566 0.01 0.48498 0.0293 0.48294 0.049 0.48124 0.0681 0.47783 0.0875 0.47341 0.10686 0.46932 0.12559 0.46354 0.14464 0.45741 0.16302 0.45061 0.1814 0.44311 0.1991 0.43461 0.21713 0.42542 0.23415 0.41521 0.25151 0.40534 0.26751 0.39377 0.28418 0.38254 0.29949 0.36995 0.31448 0.35735 0.32944 0.34306 0.3434 0.32945 0.35701 0.31481 0.36995 0.29915 0.3822 0.28384 0.39411 0.26819 0.405 0.25083 0.41589 0.23449 0.42542 0.21679 0.43427 0.19944 0.44311 0.18174 0.45027 0.16268 0.45775 0.1443 0.46354 0.12627 0.46932 0.10652 0.47375 0.0875 0.47749 0.0681 0.4809 0.049 0.48328 0.0293 0.48464 0.01 0.48566" fill="none" stroke="#000" stroke-linecap="round" stroke-linejoin="round"/>
 </g>
</svg>
